<svg xmlns="http://www.w3.org/2000/svg" viewBox="0 0 25 60"><defs><style>.cls-1{fill:#fdbe20;}</style></defs><g id="Layer_2" data-name="Layer 2"><g id="artwork"><g id="Group_48" data-name="Group 48"><g id="Union_4" data-name="Union 4"><path class="cls-1" d="M12.5,37,2.94,19.19l0,0,0,0a11.51,11.51,0,0,1-1.8-3.34l0,0h0l0-.06A11.42,11.42,0,0,1,4,3.91,12.11,12.11,0,0,1,12.5.5,12.11,12.11,0,0,1,21,3.91a11.42,11.42,0,0,1,3,11.77l0,.06h0l0,0a11.51,11.51,0,0,1-1.8,3.34l0,0,0,0Z"/><path class="cls-1" d="M12.5,35.89,21.62,19l0-.07.05-.07a11,11,0,0,0,1.72-3.19v0l0-.05A10.77,10.77,0,0,0,24,12.14a10.9,10.9,0,0,0-3.36-7.87A11.6,11.6,0,0,0,12.5,1,11.6,11.6,0,0,0,4.36,4.27,10.9,10.9,0,0,0,1,12.14a10.77,10.77,0,0,0,.54,3.38l0,.05v0a11,11,0,0,0,1.72,3.19l0,.07,0,.07L12.5,35.89m0,2.11L2.5,19.42A11.84,11.84,0,0,1,.62,15.94l-.05-.11h0A11.83,11.83,0,0,1,0,12.14,12.32,12.32,0,0,1,12.5,0,12.32,12.32,0,0,1,25,12.14a11.83,11.83,0,0,1-.59,3.69h0l-.05.11a11.84,11.84,0,0,1-1.88,3.48Z"/></g><circle id="Ellipse_16" data-name="Ellipse 16" class="cls-1" cx="12.5" cy="51.5" r="8.5"/></g></g></g></svg>