<svg xmlns="http://www.w3.org/2000/svg" viewBox="0 0 34 34.01"><defs><style>.cls-1,.cls-2{fill:none;stroke:#69a5d6;stroke-linecap:round;stroke-linejoin:round;}.cls-1{stroke-width:3px;}</style></defs><g id="Layer_2" data-name="Layer 2"><g id="artwork"><g id="Group_31" data-name="Group 31"><path id="Path_10" data-name="Path 10" class="cls-1" d="M27.43,21.23a2.33,2.33,0,0,0,.46,2.57l.09.08a2.82,2.82,0,0,1-4,4l0,0-.09-.08a2.34,2.34,0,0,0-3.31.05,2.31,2.31,0,0,0-.66,1.61v.24a2.82,2.82,0,1,1-5.64,0v-.13a2.34,2.34,0,0,0-1.52-2.13,2.33,2.33,0,0,0-2.57.47l-.08.08a2.82,2.82,0,0,1-4-4l0,0,.09-.09a2.35,2.35,0,0,0,0-3.32,2.38,2.38,0,0,0-1.61-.66H4.32a2.82,2.82,0,1,1,0-5.63h.12a2.34,2.34,0,0,0,2.13-1.53,2.31,2.31,0,0,0-.46-2.56L6,10.12a2.82,2.82,0,0,1,4-4l0,0,.08.08a2.33,2.33,0,0,0,2.57.47h.11a2.34,2.34,0,0,0,1.41-2.13V4.32a2.82,2.82,0,0,1,5.64,0v.13a2.34,2.34,0,0,0,4,1.66L23.88,6a2.82,2.82,0,0,1,4,4l0,0-.08.09a2.33,2.33,0,0,0-.47,2.56v.11a2.32,2.32,0,0,0,2.13,1.41h.24a2.82,2.82,0,0,1,0,5.64h-.12a2.32,2.32,0,0,0-2.13,1.41Z"/><path id="Path_9" data-name="Path 9" class="cls-1" d="M21.23,17A4.23,4.23,0,1,1,17,12.78,4.22,4.22,0,0,1,21.23,17Z"/><path id="Path_11" data-name="Path 11" class="cls-2" d="M27.43,21.23a2.33,2.33,0,0,0,.46,2.57l.09.08a2.82,2.82,0,0,1-4,4l0,0-.09-.08a2.34,2.34,0,0,0-3.31.05,2.31,2.31,0,0,0-.66,1.61v.24a2.82,2.82,0,1,1-5.64,0v-.13a2.34,2.34,0,0,0-1.52-2.13,2.33,2.33,0,0,0-2.57.47l-.08.08a2.82,2.82,0,0,1-4-4l0,0,.09-.09a2.35,2.35,0,0,0,0-3.32,2.38,2.38,0,0,0-1.61-.66H4.32a2.82,2.82,0,1,1,0-5.63h.12a2.34,2.34,0,0,0,2.13-1.53,2.31,2.31,0,0,0-.46-2.56L6,10.12a2.82,2.82,0,0,1,4-4l0,0,.08.08a2.33,2.33,0,0,0,2.57.47h.11a2.34,2.34,0,0,0,1.41-2.13V4.32a2.82,2.82,0,0,1,5.64,0v.13a2.34,2.34,0,0,0,4,1.66L23.88,6a2.82,2.82,0,0,1,4,4l0,0-.08.09a2.33,2.33,0,0,0-.47,2.56v.11a2.32,2.32,0,0,0,2.13,1.41h.24a2.82,2.82,0,0,1,0,5.64h-.12a2.32,2.32,0,0,0-2.13,1.41Z"/></g></g></g></svg>